0
SECTION
2
HEADER
9
$ACADVER
1
AC1009
0
ENDSEC
0
SECTION
2
TABLES
0
TABLE
2
LAYER
70
2
0
LAYER
2
SCAN_RASTER
70
0
62
7
6
CONTINUOUS
0
LAYER
2
CUT_VECTOR
70
0
62
1
6
CONTINUOUS
0
ENDTAB
0
ENDSEC
0
SECTION
2
ENTITIES
0
CIRCLE
8
CUT_VECTOR
10
25.0
20
45.0
30
0.0
40
2.0
0
POLYLINE
8
CUT_VECTOR
66
1
70
1
0
VERTEX
8
CUT_VECTOR
10
5.0
20
0.0
30
0.0
0
VERTEX
8
CUT_VECTOR
10
45.0
20
0.0
30
0.0
0
VERTEX
8
CUT_VECTOR
10
50.0
20
5.0
30
0.0
0
VERTEX
8
CUT_VECTOR
10
50.0
20
45.0
30
0.0
0
VERTEX
8
CUT_VECTOR
10
45.0
20
50.0
30
0.0
0
VERTEX
8
CUT_VECTOR
10
5.0
20
50.0
30
0.0
0
VERTEX
8
CUT_VECTOR
10
0.0
20
45.0
30
0.0
0
VERTEX
8
CUT_VECTOR
10
0.0
20
5.0
30
0.0
0
VERTEX
8
CUT_VECTOR
10
5.0
20
0.0
30
0.0
0
SEQEND
0
LINE
8
SCAN_RASTER
10
15.0
20
25.0
30
0.0
11
35.0
21
25.0
31
0.0
0
LINE
8
SCAN_RASTER
10
18.0
20
32.0
30
0.0
11
22.0
21
30.0
31
0.0
0
LINE
8
SCAN_RASTER
10
28.0
20
30.0
30
0.0
11
32.0
21
32.0
31
0.0
0
ENDSEC
0
EOF
